# xmcd
#
# Track frame offsets:
#	150
#	10905
#	19577
#	29592
#	42146
#	52601
#	62733
#	73689
#	82954
#	92234
#	103445
#	113273
#	122516
#	131552
#	142077
#	152303
#	164614
#	174568
#	183315
#	194222
#	205891
#	215899
#	226156
#	238809
#
# Disc length: 3313 seconds
# Revision: 2
# Processed by: cddbd v1.5.2PL0 Copyright (c) Steve Scherf et al.
# Submitted via: dBpowerAMP V12.0
#
DISCID=500cef18
DTITLE=Faron Young - The Young Approach - Hello Walls (1961)
DYEAR=2011
DGENRE=Country
TTITLE0=Hello Walls
TTITLE1=There's Not Any Like You Left
TTITLE2=Big Shoes
TTITLE3=Is She All You Thought She'd Be
TTITLE4=Anything Your Heart Desires
TTITLE5=Forget The Past
TTITLE6=Congratulation
TTITLE7=A World So Fall Of Love
TTITLE8=I Made A Fool Of Myself
TTITLE9=Believing It Yourself
TTITLE10=Out Of My Heart
TTITLE11=Let Old Mother Have Her Way
TTITLE12=Backtrack
TTITLE13=Let's Pretend We're Lovers Again
TTITLE14=The Part Where I Cry
TTITLE15=I Fall To Pieces
TTITLE16=How Can I Forget You
TTITLE17=Goin' Steady
TTITLE18=Three Days
TTITLE19=I Can't Find The Time
TTITLE20=Trail Of Tears
TTITLE21=A Moment Isn't Very Long
TTITLE22=Moments To Remember
TTITLE23=Things To Remember
EXTD=
EXTT0=
EXTT1=
EXTT2=
EXTT3=
EXTT4=
EXTT5=
EXTT6=
EXTT7=
EXTT8=
EXTT9=
EXTT10=
EXTT11=
EXTT12=
EXTT13=
EXTT14=
EXTT15=
EXTT16=
EXTT17=
EXTT18=
EXTT19=
EXTT20=
EXTT21=
EXTT22=
EXTT23=
PLAYORDER=
